{
    "asset" : {
        "generator" : "Khronos glTF Blender I/O v1.4.40",
        "version" : "2.0"
    },
    "scene" : 0,
    "scenes" : [
        {
            "name" : "Scene",
            "nodes" : [
                0,
                1,
                2,
                3,
                4,
                5
            ]
        }
    ],
    "nodes" : [
        {
            "mesh" : 0,
            "name" : "Curve",
            "translation" : [
                -8.294917643070221e-05,
                0,
                0.00203778687864542
            ]
        },
        {
            "mesh" : 1,
            "name" : "Curve.001",
            "translation" : [
                0.00013228785246610641,
                0,
                0.0008795615285634995
            ]
        },
        {
            "mesh" : 2,
            "name" : "Curve.002",
            "translation" : [
                -4.9338676035404205e-05,
                0,
                -0.002917347475886345
            ]
        },
        {
            "mesh" : 3,
            "name" : "Curve.003",
            "translation" : [
                -8.294917643070221e-05,
                0,
                0.00203778687864542
            ]
        },
        {
            "mesh" : 4,
            "name" : "Curve.004",
            "translation" : [
                0.00013228785246610641,
                0,
                0.0008795615285634995
            ]
        },
        {
            "mesh" : 5,
            "name" : "Curve.005",
            "translation" : [
                -4.9338676035404205e-05,
                0,
                -0.002917347475886345
            ]
        }
    ],
    "materials" : [
        {
            "doubleSided" : true,
            "name" : "SVGMat",
            "pbrMetallicRoughness" : {
                "baseColorFactor" : [
                    1,
                    0.48846709728240967,
                    0,
                    1
                ],
                "metallicFactor" : 0,
                "roughnessFactor" : 0.4000000059604645
            }
        },
        {
            "doubleSided" : true,
            "name" : "Material.001",
            "pbrMetallicRoughness" : {
                "baseColorFactor" : [
                    0.31570369005203247,
                    0,
                    0.8000000715255737,
                    1
                ],
                "metallicFactor" : 0,
                "roughnessFactor" : 0.5
            }
        }
    ],
    "meshes" : [
        {
            "name" : "Curve",
            "primitives" : [
                {
                    "attributes" : {
                        "POSITION" : 0,
                        "NORMAL" : 1,
                        "TEXCOORD_0" : 2
                    },
                    "indices" : 3,
                    "material" : 0
                }
            ]
        },
        {
            "name" : "Curve.001",
            "primitives" : [
                {
                    "attributes" : {
                        "POSITION" : 4,
                        "NORMAL" : 5,
                        "TEXCOORD_0" : 6
                    },
                    "indices" : 7,
                    "material" : 0
                }
            ]
        },
        {
            "name" : "Curve.002",
            "primitives" : [
                {
                    "attributes" : {
                        "POSITION" : 8,
                        "NORMAL" : 9,
                        "TEXCOORD_0" : 10
                    },
                    "indices" : 11,
                    "material" : 0
                }
            ]
        },
        {
            "name" : "Curve.003",
            "primitives" : [
                {
                    "attributes" : {
                        "POSITION" : 12,
                        "NORMAL" : 13,
                        "TEXCOORD_0" : 14
                    },
                    "indices" : 15,
                    "material" : 1
                }
            ]
        },
        {
            "name" : "Curve.004",
            "primitives" : [
                {
                    "attributes" : {
                        "POSITION" : 16,
                        "NORMAL" : 17,
                        "TEXCOORD_0" : 18
                    },
                    "indices" : 19,
                    "material" : 0
                }
            ]
        },
        {
            "name" : "Curve.005",
            "primitives" : [
                {
                    "attributes" : {
                        "POSITION" : 20,
                        "NORMAL" : 21,
                        "TEXCOORD_0" : 22
                    },
                    "indices" : 23,
                    "material" : 0
                }
            ]
        }
    ],
    "accessors" : [
        {
            "bufferView" : 0,
            "componentType" : 5126,
            "count" : 15957,
            "max" : [
                0.009834617376327515,
                0.0029521796386688948,
                0.01066635549068451
            ],
            "min" : [
                -0.009169112890958786,
                0,
                -0.014071565121412277
            ],
            "type" : "VEC3"
        },
        {
            "bufferView" : 1,
            "componentType" : 5126,
            "count" : 15957,
            "type" : "VEC3"
        },
        {
            "bufferView" : 2,
            "componentType" : 5126,
            "count" : 15957,
            "type" : "VEC2"
        },
        {
            "bufferView" : 3,
            "componentType" : 5123,
            "count" : 25512,
            "type" : "SCALAR"
        },
        {
            "bufferView" : 4,
            "componentType" : 5126,
            "count" : 11964,
            "max" : [
                0.009435808286070824,
                0.0029521796386688948,
                0.011654670350253582
            ],
            "min" : [
                -0.009200692176818848,
                0,
                -0.012733958661556244
            ],
            "type" : "VEC3"
        },
        {
            "bufferView" : 5,
            "componentType" : 5126,
            "count" : 11964,
            "type" : "VEC3"
        },
        {
            "bufferView" : 6,
            "componentType" : 5126,
            "count" : 11964,
            "type" : "VEC2"
        },
        {
            "bufferView" : 7,
            "componentType" : 5123,
            "count" : 19032,
            "type" : "SCALAR"
        },
        {
            "bufferView" : 8,
            "componentType" : 5126,
            "count" : 4026,
            "max" : [
                0.001341026509180665,
                0.0029521796386688948,
                0.005052248481661081
            ],
            "min" : [
                -0.00339317275211215,
                0,
                -0.006082497537136078
            ],
            "type" : "VEC3"
        },
        {
            "bufferView" : 9,
            "componentType" : 5126,
            "count" : 4026,
            "type" : "VEC3"
        },
        {
            "bufferView" : 10,
            "componentType" : 5126,
            "count" : 4026,
            "type" : "VEC2"
        },
        {
            "bufferView" : 11,
            "componentType" : 5123,
            "count" : 6372,
            "type" : "SCALAR"
        },
        {
            "bufferView" : 12,
            "componentType" : 5126,
            "count" : 15957,
            "max" : [
                0.009834617376327515,
                0.0029521796386688948,
                0.01066635549068451
            ],
            "min" : [
                -0.009169112890958786,
                0,
                -0.014071565121412277
            ],
            "type" : "VEC3"
        },
        {
            "bufferView" : 13,
            "componentType" : 5126,
            "count" : 15957,
            "type" : "VEC3"
        },
        {
            "bufferView" : 14,
            "componentType" : 5126,
            "count" : 15957,
            "type" : "VEC2"
        },
        {
            "bufferView" : 15,
            "componentType" : 5123,
            "count" : 25512,
            "type" : "SCALAR"
        },
        {
            "bufferView" : 16,
            "componentType" : 5126,
            "count" : 12006,
            "max" : [
                0.009435808286070824,
                0.0034292442724108696,
                0.011654670350253582
            ],
            "min" : [
                -0.009200692176818848,
                0,
                -0.012733958661556244
            ],
            "type" : "VEC3"
        },
        {
            "bufferView" : 17,
            "componentType" : 5126,
            "count" : 12006,
            "type" : "VEC3"
        },
        {
            "bufferView" : 18,
            "componentType" : 5126,
            "count" : 12006,
            "type" : "VEC2"
        },
        {
            "bufferView" : 19,
            "componentType" : 5123,
            "count" : 19032,
            "type" : "SCALAR"
        },
        {
            "bufferView" : 20,
            "componentType" : 5126,
            "count" : 4026,
            "max" : [
                0.001341026509180665,
                0.0029521796386688948,
                0.005052248481661081
            ],
            "min" : [
                -0.00339317275211215,
                0,
                -0.006082497537136078
            ],
            "type" : "VEC3"
        },
        {
            "bufferView" : 21,
            "componentType" : 5126,
            "count" : 4026,
            "type" : "VEC3"
        },
        {
            "bufferView" : 22,
            "componentType" : 5126,
            "count" : 4026,
            "type" : "VEC2"
        },
        {
            "bufferView" : 23,
            "componentType" : 5123,
            "count" : 6372,
            "type" : "SCALAR"
        }
    ],
    "bufferViews" : [
        {
            "buffer" : 0,
            "byteLength" : 191484,
            "byteOffset" : 0
        },
        {
            "buffer" : 0,
            "byteLength" : 191484,
            "byteOffset" : 191484
        },
        {
            "buffer" : 0,
            "byteLength" : 127656,
            "byteOffset" : 382968
        },
        {
            "buffer" : 0,
            "byteLength" : 51024,
            "byteOffset" : 510624
        },
        {
            "buffer" : 0,
            "byteLength" : 143568,
            "byteOffset" : 561648
        },
        {
            "buffer" : 0,
            "byteLength" : 143568,
            "byteOffset" : 705216
        },
        {
            "buffer" : 0,
            "byteLength" : 95712,
            "byteOffset" : 848784
        },
        {
            "buffer" : 0,
            "byteLength" : 38064,
            "byteOffset" : 944496
        },
        {
            "buffer" : 0,
            "byteLength" : 48312,
            "byteOffset" : 982560
        },
        {
            "buffer" : 0,
            "byteLength" : 48312,
            "byteOffset" : 1030872
        },
        {
            "buffer" : 0,
            "byteLength" : 32208,
            "byteOffset" : 1079184
        },
        {
            "buffer" : 0,
            "byteLength" : 12744,
            "byteOffset" : 1111392
        },
        {
            "buffer" : 0,
            "byteLength" : 191484,
            "byteOffset" : 1124136
        },
        {
            "buffer" : 0,
            "byteLength" : 191484,
            "byteOffset" : 1315620
        },
        {
            "buffer" : 0,
            "byteLength" : 127656,
            "byteOffset" : 1507104
        },
        {
            "buffer" : 0,
            "byteLength" : 51024,
            "byteOffset" : 1634760
        },
        {
            "buffer" : 0,
            "byteLength" : 144072,
            "byteOffset" : 1685784
        },
        {
            "buffer" : 0,
            "byteLength" : 144072,
            "byteOffset" : 1829856
        },
        {
            "buffer" : 0,
            "byteLength" : 96048,
            "byteOffset" : 1973928
        },
        {
            "buffer" : 0,
            "byteLength" : 38064,
            "byteOffset" : 2069976
        },
        {
            "buffer" : 0,
            "byteLength" : 48312,
            "byteOffset" : 2108040
        },
        {
            "buffer" : 0,
            "byteLength" : 48312,
            "byteOffset" : 2156352
        },
        {
            "buffer" : 0,
            "byteLength" : 32208,
            "byteOffset" : 2204664
        },
        {
            "buffer" : 0,
            "byteLength" : 12744,
            "byteOffset" : 2236872
        }
    ],
    "buffers" : [
        {
            "byteLength" : 2249616,
            "uri" : "data:application/octet-stream;base64,"
        }
    ]
}
