{
    "asset" : {
        "generator" : "Khronos glTF Blender I/O v1.4.40",
        "version" : "2.0"
    },
    "scene" : 0,
    "scenes" : [
        {
            "name" : "Scene",
            "nodes" : [
                1,
                3,
                4
            ]
        }
    ],
    "nodes" : [
        {
            "mesh" : 0,
            "name" : "leaves"
        },
        {
            "children" : [
                0
            ],
            "mesh" : 1,
            "name" : "tree",
            "scale" : [
                0.7660614252090454,
                0.7660614252090454,
                0.7660614252090454
            ],
            "translation" : [
                0.8069669008255005,
                0.006511196494102478,
                3.8880324363708496
            ]
        },
        {
            "mesh" : 2,
            "name" : "leaves.001"
        },
        {
            "children" : [
                2
            ],
            "mesh" : 3,
            "name" : "tree.001",
            "scale" : [
                0.5354676246643066,
                0.5354676246643066,
                0.5354676246643066
            ],
            "translation" : [
                3.171657085418701,
                0,
                2.6197357177734375
            ]
        },
        {
            "mesh" : 4,
            "name" : "Plane"
        }
    ],
    "materials" : [
        {
            "doubleSided" : true,
            "name" : "Material.005",
            "pbrMetallicRoughness" : {
                "baseColorFactor" : [
                    0.009886560961604118,
                    0.051410943269729614,
                    0.006674575619399548,
                    1
                ],
                "metallicFactor" : 0,
                "roughnessFactor" : 0.5
            }
        },
        {
            "doubleSided" : true,
            "name" : "Material.004",
            "pbrMetallicRoughness" : {
                "baseColorFactor" : [
                    0.04321236163377762,
                    0.011771166697144508,
                    0.0064467513002455235,
                    1
                ],
                "metallicFactor" : 0,
                "roughnessFactor" : 0.5
            }
        },
        {
            "doubleSided" : true,
            "name" : "Material.001",
            "pbrMetallicRoughness" : {
                "baseColorFactor" : [
                    0.8000000715255737,
                    0.43267449736595154,
                    0.17953915894031525,
                    1
                ],
                "metallicFactor" : 0,
                "roughnessFactor" : 0.5
            }
        },
        {
            "doubleSided" : true,
            "name" : "Material.002",
            "pbrMetallicRoughness" : {
                "baseColorFactor" : [
                    0,
                    0.0008641404565423727,
                    0.03759001940488815,
                    1
                ],
                "metallicFactor" : 0,
                "roughnessFactor" : 0.5
            }
        },
        {
            "doubleSided" : true,
            "name" : "Material.003",
            "pbrMetallicRoughness" : {
                "baseColorFactor" : [
                    0.3629070222377777,
                    0.6494988799095154,
                    0.8000000715255737,
                    1
                ],
                "metallicFactor" : 0,
                "roughnessFactor" : 0.5
            }
        }
    ],
    "meshes" : [
        {
            "name" : "leaves",
            "primitives" : [
                {
                    "attributes" : {
                        "POSITION" : 0,
                        "NORMAL" : 1,
                        "TEXCOORD_0" : 2
                    },
                    "indices" : 3,
                    "material" : 0
                }
            ]
        },
        {
            "name" : "tree",
            "primitives" : [
                {
                    "attributes" : {
                        "POSITION" : 4,
                        "NORMAL" : 5,
                        "TEXCOORD_0" : 6
                    },
                    "indices" : 7,
                    "material" : 1
                }
            ]
        },
        {
            "name" : "leaves.001",
            "primitives" : [
                {
                    "attributes" : {
                        "POSITION" : 8,
                        "NORMAL" : 9,
                        "TEXCOORD_0" : 10
                    },
                    "indices" : 11,
                    "material" : 0
                }
            ]
        },
        {
            "name" : "tree.001",
            "primitives" : [
                {
                    "attributes" : {
                        "POSITION" : 12,
                        "NORMAL" : 13,
                        "TEXCOORD_0" : 14
                    },
                    "indices" : 15,
                    "material" : 1
                }
            ]
        },
        {
            "name" : "Plane",
            "primitives" : [
                {
                    "attributes" : {
                        "POSITION" : 16,
                        "NORMAL" : 17,
                        "TEXCOORD_0" : 18
                    },
                    "indices" : 19,
                    "material" : 2
                },
                {
                    "attributes" : {
                        "POSITION" : 20,
                        "NORMAL" : 21,
                        "TEXCOORD_0" : 22
                    },
                    "indices" : 23,
                    "material" : 3
                },
                {
                    "attributes" : {
                        "POSITION" : 24,
                        "NORMAL" : 25,
                        "TEXCOORD_0" : 26
                    },
                    "indices" : 27,
                    "material" : 4
                }
            ]
        }
    ],
    "accessors" : [
        {
            "bufferView" : 0,
            "componentType" : 5126,
            "count" : 13398,
            "max" : [
                2.6777453422546387,
                6.77318811416626,
                2.768052577972412
            ],
            "min" : [
                -3.2706007957458496,
                0.7550492286682129,
                -3.2979490756988525
            ],
            "type" : "VEC3"
        },
        {
            "bufferView" : 1,
            "componentType" : 5126,
            "count" : 13398,
            "type" : "VEC3"
        },
        {
            "bufferView" : 2,
            "componentType" : 5126,
            "count" : 13398,
            "type" : "VEC2"
        },
        {
            "bufferView" : 3,
            "componentType" : 5123,
            "count" : 20100,
            "type" : "SCALAR"
        },
        {
            "bufferView" : 4,
            "componentType" : 5126,
            "count" : 5579,
            "max" : [
                2.4933278560638428,
                6.484395980834961,
                2.518217086791992
            ],
            "min" : [
                -2.913344621658325,
                0,
                -2.9490883350372314
            ],
            "type" : "VEC3"
        },
        {
            "bufferView" : 5,
            "componentType" : 5126,
            "count" : 5579,
            "type" : "VEC3"
        },
        {
            "bufferView" : 6,
            "componentType" : 5126,
            "count" : 5579,
            "type" : "VEC2"
        },
        {
            "bufferView" : 7,
            "componentType" : 5123,
            "count" : 21924,
            "type" : "SCALAR"
        },
        {
            "bufferView" : 8,
            "componentType" : 5126,
            "count" : 5152,
            "max" : [
                1.0979633331298828,
                5.528445243835449,
                1.1330220699310303
            ],
            "min" : [
                -1.154570460319519,
                1.4952303171157837,
                -1.129533052444458
            ],
            "type" : "VEC3"
        },
        {
            "bufferView" : 9,
            "componentType" : 5126,
            "count" : 5152,
            "type" : "VEC3"
        },
        {
            "bufferView" : 10,
            "componentType" : 5126,
            "count" : 5152,
            "type" : "VEC2"
        },
        {
            "bufferView" : 11,
            "componentType" : 5123,
            "count" : 7728,
            "type" : "SCALAR"
        },
        {
            "bufferView" : 12,
            "componentType" : 5126,
            "count" : 2723,
            "max" : [
                0.9437756538391113,
                5.369480609893799,
                0.9938236474990845
            ],
            "min" : [
                -1.0201770067214966,
                0,
                -0.9892565011978149
            ],
            "type" : "VEC3"
        },
        {
            "bufferView" : 13,
            "componentType" : 5126,
            "count" : 2723,
            "type" : "VEC3"
        },
        {
            "bufferView" : 14,
            "componentType" : 5126,
            "count" : 2723,
            "type" : "VEC2"
        },
        {
            "bufferView" : 15,
            "componentType" : 5123,
            "count" : 10584,
            "type" : "SCALAR"
        },
        {
            "bufferView" : 16,
            "componentType" : 5126,
            "count" : 455,
            "max" : [
                2.184001922607422,
                2.643204689025879,
                1.0790282487869263
            ],
            "min" : [
                -2.522345542907715,
                0,
                -1
            ],
            "type" : "VEC3"
        },
        {
            "bufferView" : 17,
            "componentType" : 5126,
            "count" : 455,
            "type" : "VEC3"
        },
        {
            "bufferView" : 18,
            "componentType" : 5126,
            "count" : 455,
            "type" : "VEC2"
        },
        {
            "bufferView" : 19,
            "componentType" : 5123,
            "count" : 1122,
            "type" : "SCALAR"
        },
        {
            "bufferView" : 20,
            "componentType" : 5126,
            "count" : 162,
            "max" : [
                1.9875801801681519,
                3.306065797805786,
                1
            ],
            "min" : [
                -0.7499819993972778,
                1.8556467294692993,
                -1
            ],
            "type" : "VEC3"
        },
        {
            "bufferView" : 21,
            "componentType" : 5126,
            "count" : 162,
            "type" : "VEC3"
        },
        {
            "bufferView" : 22,
            "componentType" : 5126,
            "count" : 162,
            "type" : "VEC2"
        },
        {
            "bufferView" : 23,
            "componentType" : 5123,
            "count" : 270,
            "type" : "SCALAR"
        },
        {
            "bufferView" : 24,
            "componentType" : 5126,
            "count" : 24,
            "max" : [
                2.105184316635132,
                1.6259747743606567,
                0.9460431933403015
            ],
            "min" : [
                -0.269784539937973,
                0.14632830023765564,
                -0.19074814021587372
            ],
            "type" : "VEC3"
        },
        {
            "bufferView" : 25,
            "componentType" : 5126,
            "count" : 24,
            "type" : "VEC3"
        },
        {
            "bufferView" : 26,
            "componentType" : 5126,
            "count" : 24,
            "type" : "VEC2"
        },
        {
            "bufferView" : 27,
            "componentType" : 5123,
            "count" : 36,
            "type" : "SCALAR"
        }
    ],
    "bufferViews" : [
        {
            "buffer" : 0,
            "byteLength" : 160776,
            "byteOffset" : 0
        },
        {
            "buffer" : 0,
            "byteLength" : 160776,
            "byteOffset" : 160776
        },
        {
            "buffer" : 0,
            "byteLength" : 107184,
            "byteOffset" : 321552
        },
        {
            "buffer" : 0,
            "byteLength" : 40200,
            "byteOffset" : 428736
        },
        {
            "buffer" : 0,
            "byteLength" : 66948,
            "byteOffset" : 468936
        },
        {
            "buffer" : 0,
            "byteLength" : 66948,
            "byteOffset" : 535884
        },
        {
            "buffer" : 0,
            "byteLength" : 44632,
            "byteOffset" : 602832
        },
        {
            "buffer" : 0,
            "byteLength" : 43848,
            "byteOffset" : 647464
        },
        {
            "buffer" : 0,
            "byteLength" : 61824,
            "byteOffset" : 691312
        },
        {
            "buffer" : 0,
            "byteLength" : 61824,
            "byteOffset" : 753136
        },
        {
            "buffer" : 0,
            "byteLength" : 41216,
            "byteOffset" : 814960
        },
        {
            "buffer" : 0,
            "byteLength" : 15456,
            "byteOffset" : 856176
        },
        {
            "buffer" : 0,
            "byteLength" : 32676,
            "byteOffset" : 871632
        },
        {
            "buffer" : 0,
            "byteLength" : 32676,
            "byteOffset" : 904308
        },
        {
            "buffer" : 0,
            "byteLength" : 21784,
            "byteOffset" : 936984
        },
        {
            "buffer" : 0,
            "byteLength" : 21168,
            "byteOffset" : 958768
        },
        {
            "buffer" : 0,
            "byteLength" : 5460,
            "byteOffset" : 979936
        },
        {
            "buffer" : 0,
            "byteLength" : 5460,
            "byteOffset" : 985396
        },
        {
            "buffer" : 0,
            "byteLength" : 3640,
            "byteOffset" : 990856
        },
        {
            "buffer" : 0,
            "byteLength" : 2244,
            "byteOffset" : 994496
        },
        {
            "buffer" : 0,
            "byteLength" : 1944,
            "byteOffset" : 996740
        },
        {
            "buffer" : 0,
            "byteLength" : 1944,
            "byteOffset" : 998684
        },
        {
            "buffer" : 0,
            "byteLength" : 1296,
            "byteOffset" : 1000628
        },
        {
            "buffer" : 0,
            "byteLength" : 540,
            "byteOffset" : 1001924
        },
        {
            "buffer" : 0,
            "byteLength" : 288,
            "byteOffset" : 1002464
        },
        {
            "buffer" : 0,
            "byteLength" : 288,
            "byteOffset" : 1002752
        },
        {
            "buffer" : 0,
            "byteLength" : 192,
            "byteOffset" : 1003040
        },
        {
            "buffer" : 0,
            "byteLength" : 72,
            "byteOffset" : 1003232
        }
    ],
    "buffers" : [
        {
            "byteLength" : 1003304,
            "uri" : "data:application/octet-stream;base64,"
        }
    ]
}
